<svg width="92" height="54" viewBox="0 0 92 54" fill="none" xmlns="http://www.w3.org/2000/svg">
<path d="M0.671963 14.5083L0.671963 5.16157C3.0921 5.16157 4.01009 4.5774 5.67915 3.49251C7.76547 2.15726 10.6029 0.321286 15.7769 0.321286C20.951 0.321286 23.7884 2.15726 25.8747 3.49251C27.5438 4.5774 28.4618 5.16157 30.8819 5.16157C33.302 5.16157 34.22 4.5774 35.8891 3.49251C37.9754 2.15726 40.8128 0.321287 45.9869 0.321287C51.1609 0.321287 53.9983 2.15727 56.0847 3.49251C57.7537 4.5774 58.6717 5.16157 61.0918 5.16157C63.512 5.16157 64.4299 4.5774 66.099 3.49251C68.1853 2.15727 71.0227 0.321288 76.1968 0.321288C81.3709 0.321289 84.2083 2.15727 86.2946 3.49251C87.9636 4.5774 88.8816 5.16157 91.3018 5.16157L91.3018 14.5083C86.1277 14.5083 83.2903 12.6723 81.204 11.3371C79.5349 10.2522 78.6169 9.66802 76.1968 9.66802C73.7767 9.66802 72.8587 10.2522 71.1896 11.3371C69.1033 12.6723 66.2659 14.5083 61.0918 14.5083C55.9178 14.5083 53.0804 12.6723 50.994 11.3371C49.325 10.2522 48.407 9.66802 45.9869 9.66802C43.5667 9.66802 42.6488 10.2522 40.9797 11.3371C38.8934 12.6723 36.056 14.5083 30.8819 14.5083C25.7078 14.5083 22.8704 12.6723 20.7841 11.3371C19.115 10.2522 18.1971 9.66801 15.7769 9.66801C13.3568 9.66801 12.4388 10.2522 10.7698 11.3371C8.68344 12.6723 5.84604 14.5083 0.671963 14.5083Z" fill="#E2E3E4"/>
<path d="M0.671963 34.2033L0.671963 24.8566C3.0921 24.8566 4.01009 24.2724 5.67915 23.1876C7.76547 21.8523 10.6029 20.0164 15.7769 20.0164C20.951 20.0164 23.7884 21.8523 25.8747 23.1876C27.5438 24.2724 28.4618 24.8566 30.8819 24.8566C33.302 24.8566 34.22 24.2724 35.8891 23.1876C37.9754 21.8523 40.8128 20.0164 45.9869 20.0164C51.1609 20.0164 53.9983 21.8523 56.0847 23.1876C57.7537 24.2724 58.6717 24.8566 61.0918 24.8566C63.512 24.8566 64.4299 24.2724 66.099 23.1876C68.1853 21.8523 71.0227 20.0164 76.1968 20.0164C81.3709 20.0164 84.2083 21.8523 86.2946 23.1876C87.9636 24.2724 88.8816 24.8566 91.3018 24.8566L91.3018 34.2033C86.1277 34.2033 83.2903 32.3674 81.204 31.0321C79.5349 29.9473 78.6169 29.3631 76.1968 29.3631C73.7767 29.3631 72.8587 29.9473 71.1896 31.0321C69.1033 32.3674 66.2659 34.2033 61.0918 34.2033C55.9178 34.2033 53.0804 32.3674 50.994 31.0321C49.325 29.9473 48.407 29.3631 45.9869 29.3631C43.5667 29.3631 42.6488 29.9473 40.9797 31.0321C38.8934 32.3674 36.056 34.2033 30.8819 34.2033C25.7078 34.2033 22.8704 32.3674 20.7841 31.0321C19.115 29.9473 18.1971 29.3631 15.7769 29.3631C13.3568 29.3631 12.4388 29.9473 10.7698 31.0321C8.68344 32.3674 5.84604 34.2033 0.671963 34.2033Z" fill="#E2E3E4"/>
<path d="M0.671963 53.8982L0.671963 44.5514C3.0921 44.5514 4.01009 43.9673 5.67915 42.8824C7.76547 41.5471 10.6029 39.7112 15.7769 39.7112C20.951 39.7112 23.7884 41.5471 25.8747 42.8824C27.5438 43.9673 28.4618 44.5514 30.8819 44.5514C33.302 44.5514 34.22 43.9673 35.8891 42.8824C37.9754 41.5471 40.8128 39.7112 45.9869 39.7112C51.1609 39.7112 53.9983 41.5471 56.0847 42.8824C57.7537 43.9673 58.6717 44.5514 61.0918 44.5514C63.512 44.5514 64.4299 43.9673 66.099 42.8824C68.1853 41.5471 71.0227 39.7112 76.1968 39.7112C81.3709 39.7112 84.2083 41.5471 86.2946 42.8824C87.9636 43.9673 88.8816 44.5514 91.3018 44.5514L91.3018 53.8982C86.1277 53.8982 83.2903 52.0622 81.204 50.7269C79.5349 49.6421 78.6169 49.0579 76.1968 49.0579C73.7767 49.0579 72.8587 49.6421 71.1896 50.7269C69.1033 52.0622 66.2659 53.8982 61.0918 53.8982C55.9178 53.8982 53.0804 52.0622 50.994 50.7269C49.325 49.6421 48.407 49.0579 45.9869 49.0579C43.5667 49.0579 42.6488 49.6421 40.9797 50.7269C38.8934 52.0622 36.056 53.8982 30.8819 53.8982C25.7078 53.8982 22.8704 52.0622 20.7841 50.7269C19.115 49.6421 18.1971 49.0579 15.7769 49.0579C13.3568 49.0579 12.4388 49.6421 10.7698 50.7269C8.68344 52.0622 5.84604 53.8982 0.671963 53.8982Z" fill="#E2E3E4"/>
</svg>
